<svg width="418" height="301" viewBox="0 0 418 301" fill="none" xmlns="http://www.w3.org/2000/svg">
<mask id="mask0_3_283" style="mask-type:alpha" maskUnits="userSpaceOnUse" x="0" y="0" width="418" height="301">
<path d="M402.519 0H15.4815C6.93129 0 0 8.69434 0 19.4194V281.581C0 292.306 6.93129 301 15.4815 301H402.519C411.069 301 418 292.306 418 281.581V19.4194C418 8.69434 411.069 0 402.519 0Z" fill="white"/>
</mask>
<g mask="url(#mask0_3_283)">
<path fill-rule="evenodd" clip-rule="evenodd" d="M7.74084 301C7.74084 301 66.6092 72.8226 127.722 301C127.722 301 168.013 199.048 212.87 301H7.74084ZM209 169.919C215.413 169.919 220.611 176.44 220.611 184.484C220.611 192.528 215.413 199.048 209 199.048C202.587 199.048 197.389 192.528 197.389 184.484C197.389 176.44 202.587 169.919 209 169.919ZM212.87 301C212.87 301 271.739 72.8226 332.852 301C332.852 301 373.143 199.048 418 301H212.87Z" fill="#A6A6A6"/>
</g>
</svg>
